<?xml version="1.0" encoding="utf-8"?>
<!-- Generator: Adobe Illustrator 19.0.0, SVG Export Plug-In . SVG Version: 6.00 Build 0)  -->
<svg version="1.1" id="Layer_1" xmlns="http://www.w3.org/2000/svg" xmlns:xlink="http://www.w3.org/1999/xlink" x="0px" y="0px"
	 viewBox="0 0 500 500" style="enable-background:new 0 0 500 500;" xml:space="preserve">
<style type="text/css">
	.st0{fill:#329545;}
	.st1{fill:#FDD43B;}
	.st2{fill:#144B9A;}
	.st3{fill:#144A99;}
	.st4{fill:#FFFFFF;}
</style>
<g id="pyldapi">
	<g id="XMLID_210_">
		<path id="XMLID_9_" class="st0" d="M448.6,291.6l-16.7-9.6c1.8-10.4,2.8-21.1,2.8-32s-1-21.6-2.8-32l16.7-9.6
			c16.9-9.8,22.8-31.6,13-48.5l-27.7-48c-9.8-16.9-31.6-22.8-48.5-13l-16.7,9.6c-16.3-13.7-35-24.6-55.4-32.1V57.2
			c0-19.5-16-35.5-35.5-35.5h-55.4c-19.5,0-35.5,16-35.5,35.5v19.2c0,0,0,0,0,0v36.3c19.3-8.9,40.7-13.9,63.3-13.9
			c83.5,0,151.1,67.7,151.1,151.1c0,59.8-34.8,111.5-85.2,136c0,0,0,0,0,0.1c10.6,20.4,26.8,21.6,36.9,17.3
			c5.5-3.7,10.7-7.6,15.7-11.8l16.7,9.6c16.9,9.8,38.8,3.9,48.5-13l27.7-48C471.3,323.2,465.5,301.4,448.6,291.6z M221.5,65.7
			c-6.1,0-11.1-5-11.1-11.1c0-6.1,5-11.1,11.1-11.1c6.1,0,11.1,5,11.1,11.1C232.5,60.7,227.6,65.7,221.5,65.7z"/>
		<path id="XMLID_6_" class="st1" d="M250,401.1c-83.5,0-151.1-67.7-151.1-151.1c0-59.8,34.8-111.5,85.2-136c0,0,0,0,0,0
			c-10.6-20.5-26.9-21.6-37-17.3c-5.4,3.6-10.7,7.6-15.7,11.8l-16.7-9.6c-16.9-9.8-38.8-3.9-48.5,13l-27.7,48
			c-9.8,16.9-3.9,38.8,13,48.5l16.7,9.6c-1.8,10.4-2.8,21.1-2.8,32s1,21.6,2.8,32l-16.7,9.6c-16.9,9.8-22.8,31.6-13,48.5l27.7,48
			c9.8,16.9,31.6,22.8,48.5,13l16.7-9.6c16.3,13.7,35,24.6,55.4,32.1v19.2c0,19.5,16,35.5,35.5,35.5h55.4c19.5,0,35.5-16,35.5-35.5
			v-19.2c0,0,0,0,0.1,0v-36.3C294,396.1,272.6,401.1,250,401.1z M278.6,456.4c-6.1,0-11.1-5-11.1-11.1c0-6.1,5-11.1,11.1-11.1
			s11.1,5,11.1,11.1C289.6,451.5,284.7,456.4,278.6,456.4z"/>
		<path id="big_gear_1_" class="st2" d="M225.9,365.2l5.6-9.7c6,1.1,12.2,1.6,18.6,1.6s12.5-0.6,18.6-1.6l5.6,9.7
			c5.7,9.8,18.3,13.2,28.1,7.5l27.8-16.1c9.8-5.7,13.2-18.3,7.5-28.1l-5.6-9.7c7.9-9.5,14.3-20.3,18.6-32.1h11.1
			c11.3,0,20.6-9.3,20.6-20.6v-32.2c0-11.3-9.3-20.6-20.6-20.6h-11.1c-4.3-11.8-10.7-22.7-18.6-32.1l5.6-9.7
			c5.7-9.8,2.3-22.5-7.5-28.1l-27.8-16.1c-9.8-5.7-22.5-2.3-28.1,7.5l-5.6,9.7c-6-1.1-12.2-1.6-18.6-1.6s-12.5,0.6-18.6,1.6
			l-5.6-9.7c-5.7-9.8-18.3-13.2-28.1-7.5l-27.8,16.1c-9.8,5.7-13.2,18.3-7.5,28.1l5.6,9.7c-7.9,9.5-14.3,20.3-18.6,32.1h-11.1
			c-11.3,0-20.6,9.3-20.6,20.6v32.2c0,11.3,9.3,20.6,20.6,20.6h11.1c4.3,11.8,10.7,22.7,18.6,32.1l-5.6,9.7
			c-5.7,9.8-2.3,22.5,7.5,28.1l27.8,16.1C207.5,378.4,220.2,375,225.9,365.2z M162.3,250c0-48.4,39.2-87.7,87.7-87.7
			c48.4,0,87.7,39.2,87.7,87.7s-39.2,87.7-87.7,87.7C201.6,337.7,162.3,298.4,162.3,250z"/>
	</g>
	<path id="XMLID_155_" class="st3" d="M299.1,299.1c2.4-7.8,1-16.7-5.3-23.4c-1.8-1.9-3.9-3.5-6.2-4.7c-0.8-0.4-1.7-0.8-2.5-1.1
		c0,0-4.8-2.4-5.3-19.8c-0.2-5.8-0.2-12.9,2.7-18.2c0.4-0.7,0.9-1.5,1.5-2c3.3-2.9,7-4.8,9.5-8.6c2.5-3.9,3.8-8.4,3.8-13
		c0-20.1-24.6-31.4-39.9-18.4c-2.3,2-4.3,4.4-5.7,7.1c-2.6,4.8-3.3,10.2-2.5,15.2c0,0,1.1,5.9-13.6,15c-13.1,8.1-19.5,6-20.7,5.4
		c-3.7-2.4-8.2-3.8-12.9-3.8c-20.1,0-31.4,24.6-18.4,39.9c2,2.3,4.4,4.3,7.1,5.7c8.8,4.7,19.2,3.4,26.5-2.5c0,0,5.2-4.1,20.7,4.2
		c12.2,6.6,14,13,14.3,15.4c0.6,6.6,1.7,12.2,6.3,17.2C271.1,322.6,293.8,316.7,299.1,299.1z M241,269.4
		c-12.7-6.8-14.6-12.6-14.9-14.3c0.2-2.1,0.1-4.2-0.3-6.2l0.1,0.1c0,0-1-5.6,13.5-14.6c13-8.1,19-6.5,20.1-6.1
		c0.7,0.5,1.4,0.9,2.2,1.3c1.5,0.8,3,1.4,4.5,1.8c1.8,1.7,5.1,6.6,5.4,19.3c0.4,12.9-3.4,17.8-5.5,19.6c-2.1,1-4.1,2.2-5.9,3.8
		C258.4,274.9,252.8,275.7,241,269.4z"/>
	<path id="XMLID_149_" class="st4" d="M258.7,194.7c-7,7.7-7.2,19-0.4,25.4c-3.4-3.2-3.3-9.9,0.1-16.4c0.4-0.6,1.7-1.9,3.5-1.3
		c0.2,0.1,0.3,0.1,0.4,0.1c0.4,0.1,0.8,0.1,1.3,0.1c2.8-0.1,5-2.5,4.8-5.3c-0.1-1.3-0.6-2.4-1.4-3.2c6.5-4.3,14-4.7,17-2l0.1,0
		C277.2,185.7,265.8,186.9,258.7,194.7z"/>
	<path id="XMLID_147_" class="st4" d="M187.9,240.2c-7,7.7-7.2,19-0.4,25.4c-3.4-3.2-3.3-10,0.1-16.4c0.4-0.6,1.7-1.9,3.5-1.3
		c0.2,0.1,0.3,0.1,0.4,0.1c0.4,0.1,0.8,0.1,1.3,0.1c2.8-0.1,5-2.5,4.8-5.3c-0.1-1.3-0.6-2.4-1.4-3.2c6.5-4.3,14-4.8,17-2l0.1,0
		C206.5,231.3,195,232.4,187.9,240.2z"/>
	<path id="XMLID_146_" class="st4" d="M262.9,278.8c-7,7.7-7.2,19-0.4,25.4c-3.4-3.2-3.3-10,0.1-16.4c0.4-0.6,1.7-1.9,3.5-1.3
		c0.2,0.1,0.3,0.1,0.4,0.1c0.4,0.1,0.8,0.1,1.3,0.1c2.8-0.1,5-2.5,4.8-5.3c-0.1-1.3-0.6-2.4-1.4-3.2c6.5-4.3,14-4.7,17-2l0.1,0
		C281.4,269.9,270,271,262.9,278.8z"/>
</g>
</svg>
